<svg xmlns="http://www.w3.org/2000/svg" viewBox="0 0 512 512">
  <!-- Breathe app icon — Celeste: a glowing orb, rings, and stars on night sky.
       Full-bleed background covers the maskable safe zone; orb/rings/stars sit
       within the central safe area. -->
  <defs>
    <radialGradient id="bg" cx="50%" cy="30%" r="80%">
      <stop offset="0%" stop-color="#332a78"/>
      <stop offset="100%" stop-color="#15102f"/>
    </radialGradient>
    <radialGradient id="orb" cx="38%" cy="32%" r="72%">
      <stop offset="0%" stop-color="#f0e3ff"/>
      <stop offset="52%" stop-color="#c3adf5"/>
      <stop offset="100%" stop-color="#8f7be0"/>
    </radialGradient>
  </defs>
  <rect width="512" height="512" fill="url(#bg)"/>
  <circle cx="256" cy="256" r="188" fill="none" stroke="#c4b6ff" stroke-opacity=".20" stroke-width="3"/>
  <circle cx="256" cy="256" r="152" fill="none" stroke="#c4b6ff" stroke-opacity=".30" stroke-width="3"/>
  <circle cx="256" cy="256" r="116" fill="url(#orb)"/>
  <circle cx="214" cy="212" r="34" fill="#ffffff" opacity=".22"/>
  <g fill="#ffffff">
    <g transform="translate(372 166) scale(1.3) translate(-12 -12)"><path d="M12 0c.9 6.4 4.7 10.2 11.1 11.1C16.7 12 12.9 15.8 12 22.2 11.1 15.8 7.3 12 .9 11.1 7.3 10.2 11.1 6.4 12 0z"/></g>
    <g transform="translate(132 332) scale(1.0) translate(-12 -12)"><path d="M12 0c.9 6.4 4.7 10.2 11.1 11.1C16.7 12 12.9 15.8 12 22.2 11.1 15.8 7.3 12 .9 11.1 7.3 10.2 11.1 6.4 12 0z"/></g>
    <g transform="translate(352 360) scale(0.82) translate(-12 -12)"><path d="M12 0c.9 6.4 4.7 10.2 11.1 11.1C16.7 12 12.9 15.8 12 22.2 11.1 15.8 7.3 12 .9 11.1 7.3 10.2 11.1 6.4 12 0z"/></g>
  </g>
</svg>
